<svg width="16" height="16" viewBox="0 0 16 16" fill="none" xmlns="http://www.w3.org/2000/svg">
<g clip-path="url(#clip0_56_453)">
<path d="M11.3333 7.59017V2.07007H4.66667V4.83012H2V14.4903H7.33333V11.7302H8.66667V14.4903H14V7.59017H11.3333ZM4.66667 13.1103H3.33333V11.7302H4.66667V13.1103ZM4.66667 10.3502H3.33333V8.9702H4.66667V10.3502ZM4.66667 7.59017H3.33333V6.21015H4.66667V7.59017ZM7.33333 10.3502H6V8.9702H7.33333V10.3502ZM7.33333 7.59017H6V6.21015H7.33333V7.59017ZM7.33333 4.83012H6V3.45009H7.33333V4.83012ZM10 10.3502H8.66667V8.9702H10V10.3502ZM10 7.59017H8.66667V6.21015H10V7.59017ZM10 4.83012H8.66667V3.45009H10V4.83012ZM12.6667 13.1103H11.3333V11.7302H12.6667V13.1103ZM12.6667 10.3502H11.3333V8.9702H12.6667V10.3502Z" fill="#848484"/>
</g>
<defs>
<clipPath id="clip0_56_453">
<rect width="16" height="16" fill="white"/>
</clipPath>
</defs>
</svg>
