<svg width="16" height="16" viewBox="0 0 16 16" fill="none" xmlns="http://www.w3.org/2000/svg">
<path d="M8.00008 2.66671L4.00008 5.72004V4.66671H2.66675V6.74004L0.666748 8.26671L1.47341 9.32671L2.66675 8.41337V14.6667H13.3334V8.41337L14.5267 9.32004L15.3334 8.26671L8.00008 2.66671ZM12.0001 13.3334H8.66675V10.6667H7.33341V13.3334H4.00008V7.40004L8.00008 4.34671L12.0001 7.40004V13.3334ZM6.66675 1.33337C6.66675 2.44004 5.77341 3.33337 4.66675 3.33337C4.30008 3.33337 4.00008 3.63337 4.00008 4.00004H2.66675C2.66675 2.89337 3.56008 2.00004 4.66675 2.00004C5.03341 2.00004 5.33341 1.70004 5.33341 1.33337H6.66675Z" fill="#848484"/>
</svg>
