<svg width="16" height="16" viewBox="0 0 16 16" fill="none" xmlns="http://www.w3.org/2000/svg">
<rect x="2" y="3" width="12" height="11" fill="#848484"/>
<rect x="3" y="4" width="1" height="1" fill="white"/>
<rect x="3" y="6" width="1" height="1" fill="white"/>
<rect x="3" y="8" width="1" height="1" fill="white"/>
<rect x="3" y="10" width="1" height="1" fill="white"/>
<rect x="3" y="12" width="3" height="1" fill="white"/>
<rect x="7" y="12" width="2" height="2" fill="white"/>
<rect x="5" y="4" width="1" height="1" fill="white"/>
<rect x="5" y="6" width="1" height="1" fill="white"/>
<rect x="5" y="8" width="1" height="1" fill="white"/>
<rect x="5" y="10" width="1" height="1" fill="white"/>
<rect x="7" y="4" width="2" height="1" fill="white"/>
<rect x="7" y="6" width="2" height="1" fill="white"/>
<rect x="7" y="8" width="2" height="1" fill="white"/>
<rect x="7" y="10" width="2" height="1" fill="white"/>
<rect x="10" y="4" width="1" height="1" fill="white"/>
<rect x="10" y="6" width="1" height="1" fill="white"/>
<rect x="10" y="8" width="1" height="1" fill="white"/>
<rect x="10" y="10" width="1" height="1" fill="white"/>
<rect x="10" y="12" width="3" height="1" fill="white"/>
<rect x="12" y="4" width="1" height="1" fill="white"/>
<rect x="12" y="6" width="1" height="1" fill="white"/>
<rect x="12" y="8" width="1" height="1" fill="white"/>
<rect x="12" y="10" width="1" height="1" fill="white"/>
<rect x="9" y="1" width="5" height="2" fill="#848484"/>
</svg>
