<svg width="11" height="11" viewBox="0 0 11 11" fill="none" xmlns="http://www.w3.org/2000/svg">
<g clip-path="url(#clip0_49_449)">
<g filter="url(#filter0_d_49_449)">
<path d="M6.10196e-05 4.11767C-0.00145482 4.21058 0.0253033 4.30175 0.0767875 4.37909C0.128272 4.45644 0.20205 4.51631 0.28834 4.55077L4.68861 6.31111L6.44899 10.7117C6.483 10.7968 6.54175 10.8698 6.61764 10.9212C6.69354 10.9726 6.78311 11 6.87477 11H6.8821C6.97493 10.9985 7.06512 10.9689 7.14074 10.9151C7.21636 10.8612 7.27384 10.7857 7.30558 10.6984L10.9721 0.615787C11.0021 0.533762 11.0081 0.44487 10.9892 0.359577C10.9704 0.274285 10.9276 0.196145 10.8659 0.13436C10.8042 0.0725753 10.726 0.0297184 10.6408 0.0108369C10.5555 -0.00804455 10.4666 -0.00216431 10.3845 0.027785L0.301631 3.6942C0.214353 3.72602 0.138791 3.78359 0.0849421 3.85929C0.0310931 3.93499 0.00149425 4.02525 6.10196e-05 4.11813V4.11767Z" fill="black"/>
</g>
</g>
<defs>
<filter id="filter0_d_49_449" x="-10" y="-6" width="31" height="31" filterUnits="userSpaceOnUse" color-interpolation-filters="sRGB">
<feFlood flood-opacity="0" result="BackgroundImageFix"/>
<feColorMatrix in="SourceAlpha" type="matrix" values="0 0 0 0 0 0 0 0 0 0 0 0 0 0 0 0 0 0 127 0" result="hardAlpha"/>
<feOffset dy="4"/>
<feGaussianBlur stdDeviation="5"/>
<feComposite in2="hardAlpha" operator="out"/>
<feColorMatrix type="matrix" values="0 0 0 0 0 0 0 0 0 0 0 0 0 0 0 0 0 0 0.15 0"/>
<feBlend mode="normal" in2="BackgroundImageFix" result="effect1_dropShadow_49_449"/>
<feBlend mode="normal" in="SourceGraphic" in2="effect1_dropShadow_49_449" result="shape"/>
</filter>
<clipPath id="clip0_49_449">
<rect width="11" height="11" fill="white"/>
</clipPath>
</defs>
</svg>
