<svg width="16" height="16" viewBox="0 0 16 16" fill="none" xmlns="http://www.w3.org/2000/svg">
<path d="M1.33333 0.5H14.6667C14.8877 0.5 15.0996 0.587797 15.2559 0.744078C15.4122 0.900358 15.5 1.11232 15.5 1.33333V14.6667C15.5 14.8877 15.4122 15.0996 15.2559 15.2559C15.0996 15.4122 14.8877 15.5 14.6667 15.5H1.33333C1.11232 15.5 0.900358 15.4122 0.744078 15.2559C0.587797 15.0996 0.5 14.8877 0.5 14.6667V1.33333C0.5 1.11232 0.587797 0.900358 0.744078 0.744078C0.900358 0.587797 1.11232 0.5 1.33333 0.5V0.5ZM2.16667 2.16667V13.8333H13.8333V2.16667H2.16667ZM5.5 3.83333H8.41667C9.19021 3.83333 9.93208 4.14062 10.4791 4.68761C11.026 5.23459 11.3333 5.97645 11.3333 6.75C11.3333 7.52355 11.026 8.26541 10.4791 8.81239C9.93208 9.35938 9.19021 9.66667 8.41667 9.66667H7.16667V12.1667H5.5V3.83333ZM7.16667 5.5V8H8.41667C8.74819 8 9.06613 7.8683 9.30055 7.63388C9.53497 7.39946 9.66667 7.08152 9.66667 6.75C9.66667 6.41848 9.53497 6.10054 9.30055 5.86612C9.06613 5.6317 8.74819 5.5 8.41667 5.5H7.16667Z" fill="#848484"/>
</svg>
