<svg width="16" height="16" viewBox="0 0 16 16" fill="none" xmlns="http://www.w3.org/2000/svg">
<path d="M12.8125 1.5H3.1875C2.8078 1.5 2.5 1.79101 2.5 2.15V13.85C2.5 14.209 2.8078 14.5 3.1875 14.5H12.8125C13.1922 14.5 13.5 14.209 13.5 13.85V2.15C13.5 1.79101 13.1922 1.5 12.8125 1.5Z" stroke="#848484" stroke-width="1.5"/>
<path d="M2.5 4.1C2.5 4.27239 2.57243 4.43772 2.70136 4.55962C2.8303 4.68152 3.00516 4.75 3.1875 4.75H12.8125C12.9948 4.75 13.1697 4.68152 13.2986 4.55962C13.4276 4.43772 13.5 4.27239 13.5 4.1V2.15C13.5 1.97761 13.4276 1.81228 13.2986 1.69038C13.1697 1.56848 12.9948 1.5 12.8125 1.5H3.1875C3.00516 1.5 2.8303 1.56848 2.70136 1.69038C2.57243 1.81228 2.5 1.97761 2.5 2.15V4.1Z" stroke="#848484" stroke-width="1.5"/>
<path d="M4.5625 3.77498C4.9422 3.77498 5.25 3.48396 5.25 3.12498C5.25 2.76599 4.9422 2.47498 4.5625 2.47498C4.1828 2.47498 3.875 2.76599 3.875 3.12498C3.875 3.48396 4.1828 3.77498 4.5625 3.77498Z" fill="#848484"/>
<path d="M6.625 3.77498C7.0047 3.77498 7.3125 3.48396 7.3125 3.12498C7.3125 2.76599 7.0047 2.47498 6.625 2.47498C6.2453 2.47498 5.9375 2.76599 5.9375 3.12498C5.9375 3.48396 6.2453 3.77498 6.625 3.77498Z" fill="#848484"/>
<path d="M8 11.9C9.32894 11.9 10.4063 10.8814 10.4063 9.62498C10.4063 8.36853 9.32894 7.34998 8 7.34998C6.67106 7.34998 5.59375 8.36853 5.59375 9.62498C5.59375 10.8814 6.67106 11.9 8 11.9Z" stroke="#848484" stroke-width="1.5"/>
</svg>
