<svg width="55" height="38" viewBox="0 0 55 38" fill="none" xmlns="http://www.w3.org/2000/svg">
<path d="M3.4179 35.272C2.80084 35.3688 2.2053 35.5773 1.61694 35.7858C1.51649 33.7454 1.44474 31.7051 1.40886 29.6721C1.39451 29.0466 0.555022 29.0764 0.490446 29.6721C0.246491 32.0699 0.124512 34.4528 0.124512 36.873C0.124512 37.4017 0.612422 37.7666 1.10033 37.64C2.13355 37.3793 3.17395 36.9549 3.86994 36.0911C4.18564 35.6964 3.88429 35.1975 3.4179 35.272Z" fill="black"/>
<path d="M5.94345 30.2902C5.79994 32.3603 5.55598 34.6539 6.21611 36.657C6.34527 37.0368 6.99823 37.141 7.06281 36.657C7.357 34.5645 6.91212 32.3827 6.74709 30.2902C6.71121 29.754 5.9865 29.7466 5.94345 30.2902Z" fill="black"/>
<path d="M13.0112 29.575C11.8847 29.5229 10.7869 30.0293 9.67472 30.1559C9.17246 30.2154 9.15093 30.9005 9.63885 30.9899C9.63167 31.0346 9.6245 31.0792 9.61732 31.1239C9.58862 32.9409 9.51687 34.7876 9.66037 36.6046C9.6819 36.9025 9.84693 37.1929 10.1411 37.2599C10.2703 37.2897 10.3635 37.3046 10.4927 37.2599C10.7725 37.1631 10.9734 36.9099 10.9734 36.6046C10.9734 35.8748 10.9376 35.1451 10.8873 34.4153C11.6407 34.1174 12.4802 33.8419 12.9969 33.1866C13.2265 32.8962 13.0758 32.4792 12.7027 32.4569C12.0282 32.4122 11.3824 32.7175 10.7654 33.0302C10.708 32.3973 10.6434 31.7569 10.5788 31.1239C10.5788 31.1016 10.5716 31.0792 10.5645 31.0569C11.5403 31.0867 12.5233 30.9601 13.2982 30.3122C13.6211 30.0665 13.3484 29.5899 13.0112 29.575Z" fill="black"/>
<path d="M18.8956 31.7428C18.4435 31.9215 17.9843 32.0407 17.561 32.2715C17.2309 32.4503 16.908 32.6364 16.578 32.8002C16.5493 32.3386 16.5134 31.8694 16.4847 31.4077C16.4775 31.3482 16.4703 31.296 16.4488 31.2514C17.2596 31.0875 18.0776 30.7971 18.5583 30.1642C18.7162 29.9556 18.6229 29.6503 18.3503 29.6354C17.3098 29.5833 16.212 30.2237 15.2218 30.5067C14.7483 30.6407 14.8272 31.4971 15.3438 31.4226C15.4658 31.4077 15.595 31.3854 15.7241 31.3705C15.7241 31.3779 15.7169 31.3928 15.7169 31.4003C15.6667 32.3907 15.6237 33.3811 15.5734 34.3715C15.5376 35.0566 15.2649 36.1289 15.6739 36.732C16.3555 37.7299 18.666 36.9852 19.1252 36.0767C19.2543 35.8161 19.1539 35.4438 18.8525 35.3768C18.4364 35.2799 18.1637 35.3619 17.7547 35.4661C17.482 35.5331 17.0802 35.7044 16.7502 35.7342C16.7 35.3991 16.7358 34.9449 16.7215 34.6991C16.7 34.3715 16.6784 34.0364 16.6569 33.7087C16.6569 33.6938 16.6569 33.6864 16.6569 33.6715C17.1376 33.5896 17.6327 33.4928 18.0848 33.3066C18.5583 33.113 18.9314 32.7853 19.3189 32.4503C19.6059 32.1896 19.2759 31.5939 18.8956 31.7428Z" fill="black"/>
<path d="M28.4224 33.0752C28.0421 33.522 27.7121 33.9762 27.3389 34.3932C27.2313 34.2219 27.1237 34.0507 27.0232 33.8794C26.9658 33.7826 26.7434 33.3805 26.5066 32.9113C27.095 32.0252 27.5327 31.0348 26.9156 30.2008C26.5281 29.6721 25.8393 29.6348 25.3299 29.9923C24.6697 30.4614 24.6123 31.3327 24.8491 32.0624C24.9424 32.3677 25.0644 32.6656 25.2079 32.956C25.1361 33.0454 25.0644 33.1347 24.9998 33.2241C24.5478 33.7975 24.0742 34.4081 23.8948 35.1379C23.5432 36.6048 24.6339 37.5208 25.9398 36.9027C26.4492 36.6644 26.973 36.3368 27.4537 35.9421C27.7551 36.2251 28.0636 36.4931 28.3722 36.7314C28.6448 36.9399 28.9318 36.5006 28.7238 36.2623C28.4798 35.9868 28.2574 35.7038 28.0421 35.4059C28.5731 34.8623 29.0036 34.2368 29.2547 33.5592C29.3982 33.0975 28.7309 32.7103 28.4224 33.0752ZM25.9972 30.9008C26.1909 30.8859 26.1837 31.3773 26.1622 31.489C26.1479 31.5859 26.0833 31.705 26.0187 31.8167C25.8321 31.3178 25.7604 30.9231 25.9972 30.9008ZM24.9137 35.8602C24.6697 35.5623 25.2079 34.7506 25.3658 34.49C25.4662 34.3262 25.6025 34.14 25.7532 33.9464C26.0187 34.3485 26.3129 34.7357 26.6286 35.1006C26.5425 35.1751 26.4492 35.2496 26.3559 35.3166C26.0833 35.5176 25.2151 36.2325 24.9137 35.8602Z" fill="black"/>
<path d="M37.7641 32.0776C38.1588 31.3032 37.8574 30.3798 37.0179 30.1043C36.1066 29.8064 35.1667 30.4915 34.9586 31.4074C34.6788 32.6138 35.468 33.3808 36.2143 34.1552C36.4152 34.3637 36.8026 34.7509 36.7381 35.1009C36.6448 35.5924 35.8555 35.5254 35.5326 35.4807C34.8438 35.3839 34.3272 34.9892 34.0258 34.3339C33.8751 33.9988 33.4303 34.1999 33.4088 34.5052C33.2509 36.5753 36.0492 37.5657 37.4125 36.2179C38.0727 35.5626 37.9291 34.5424 37.4412 33.8201C37.1399 33.3808 36.7022 33.0829 36.3721 32.6733C36.1282 32.368 35.9129 31.8914 36.121 31.4968C36.3793 31.0053 37.1112 31.1542 37.0322 31.75C36.9677 32.1819 37.5345 32.5318 37.7641 32.0776Z" fill="black"/>
<path d="M42.9321 29.6941C42.315 29.493 41.6406 29.7388 41.0379 29.8952C40.3849 30.059 39.6674 30.1409 39.0862 30.4983C38.7705 30.6919 38.8136 31.2504 39.1938 31.3324C39.8037 31.4738 40.4351 31.3398 41.045 31.2132C40.9159 31.2653 40.8083 31.3919 40.7867 31.6079C40.6002 33.2387 40.1051 35.0258 40.2701 36.6715C40.3203 37.1779 40.9302 37.5204 41.1742 36.962C41.863 35.3535 41.6836 33.3429 41.5258 31.6079C41.4971 31.3249 41.3249 31.1909 41.1598 31.1909C41.1885 31.1834 41.2244 31.176 41.2531 31.1685C41.8989 31.0345 42.6666 30.9153 43.1187 30.3717C43.3052 30.1409 43.2263 29.7835 42.9321 29.6941Z" fill="black"/>
<path d="M47.5566 31.5342C47.2696 30.7226 46.4086 28.6375 45.3251 29.8588C45.2462 29.9407 45.2175 30.0449 45.2247 30.1492C45.2103 30.179 45.196 30.2088 45.1888 30.2385C44.7511 32.2417 43.9259 34.5278 44.1986 36.5979C44.2417 36.9256 44.7367 36.9628 44.8731 36.6873C45.239 35.9277 45.4471 35.0639 45.5762 34.1703C45.892 34.148 46.2292 34.1033 46.5234 33.9767C46.6525 33.9171 46.7673 33.8501 46.8678 33.7682C47.1117 34.8107 47.1763 36.166 47.7073 37.0894C47.9512 37.5138 48.7405 37.5064 48.8266 36.9405C48.9558 36.0766 48.6544 35.1756 48.4392 34.3416C48.188 33.3884 47.8795 32.4502 47.5566 31.5342ZM46.0355 32.8597C45.9207 32.9193 45.813 32.9863 45.6982 33.0459C45.7771 32.1746 45.813 31.3034 45.892 30.4992C46.1216 30.7151 46.387 31.9066 46.4229 32.0183C46.4803 32.2193 46.5305 32.4204 46.5808 32.6214C46.4014 32.6959 46.222 32.7629 46.0355 32.8597Z" fill="black"/>
<path d="M53.3735 29.6502C53.2013 30.7523 52.9861 31.8544 52.7278 32.9416C52.247 32.7554 51.7591 32.4501 51.4362 32.0406C51.0416 31.5417 50.8479 30.9012 50.6541 30.2981C50.4748 29.7396 49.664 29.963 49.8075 30.5438C50.1088 31.7874 50.9842 34.1777 52.5556 33.6714C52.2757 34.766 51.6228 36.0766 51.795 37.2159C51.838 37.484 52.1609 37.4915 52.3188 37.3574C53.2229 36.6202 53.474 34.9001 53.6893 33.8054C53.9619 32.4427 54.048 31.1172 54.0121 29.7321C53.9978 29.3821 53.4381 29.263 53.3735 29.6502Z" fill="black"/>
<path d="M27.1383 10.9586C26.2486 13.1181 25.201 15.2329 23.8664 17.1244C23.113 18.1967 22.209 19.2019 21.104 19.8796C20.0923 20.4902 18.7936 20.9296 17.9254 19.9019C19.3819 18.5541 20.5802 16.8935 21.5058 15.1138C22.2807 13.617 22.9911 11.8224 22.2807 10.1469C21.6852 8.73951 20.2358 7.93528 18.8151 8.53845C17.4374 9.11929 16.5549 10.6384 16.0024 12.0011C15.371 13.55 15.0983 15.2776 15.2562 16.9605C15.3279 17.7275 15.4714 18.5392 15.7297 19.2988C11.726 22.2476 5.54811 22.4263 2.7426 17.6531C1.2645 15.1361 1.59457 11.9788 3.28792 9.65544C4.09154 8.55335 5.30415 7.54806 6.66744 7.36934C7.95181 7.20552 9.37968 7.83103 9.86042 9.14163C9.99675 9.50651 10.4775 9.36502 10.4129 8.98525C10.2048 7.63742 9.24335 6.62468 8.03791 6.15555C6.64592 5.61195 5.05302 5.95449 3.83323 6.78851C1.13535 8.63526 -0.392969 12.1798 0.0877702 15.4861C0.525459 18.4871 2.63497 21.1529 5.27545 22.3965C8.3608 23.8486 11.9341 23.5433 14.9405 22.0168C15.5288 21.7189 16.0813 21.3763 16.6123 20.9891C16.7199 21.1232 16.8276 21.2498 16.9495 21.3689C18.1478 22.5604 19.7479 22.4487 21.1829 21.7934C23.9238 20.5423 25.7966 17.6903 27.167 14.8755C27.2531 16.0967 27.4684 17.2956 27.985 18.3977C28.8245 20.1849 30.5681 21.5327 32.5198 21.1157C33.4167 20.9221 33.0938 19.6785 32.3189 19.5892C28.4873 19.1275 28.846 13.8181 28.9034 10.9437C28.9034 10.8767 28.9035 10.8097 28.9106 10.7426C29.3555 9.54374 29.7645 8.32995 30.1519 7.10871C30.7905 5.11303 31.7233 2.93118 31.587 0.786571C31.5439 0.183399 30.7618 -0.315521 30.317 0.242972C27.8846 3.27373 27.2603 7.13105 27.1383 10.9586ZM17.5307 12.4032C17.9038 11.5245 18.7864 9.70757 19.9631 9.99054C21.2905 10.3033 20.9318 12.232 20.5515 13.1255C19.7694 14.9648 18.5424 16.7297 17.0859 18.1371C16.928 17.519 16.8491 16.8637 16.8276 16.268C16.7845 14.95 17.0069 13.6096 17.5307 12.4032Z" fill="black"/>
<path d="M22.0857 0.874977C21.2964 0.979229 20.665 1.63453 20.0694 2.14089C19.3662 2.73662 18.6774 3.34724 18.046 4.03232C17.7446 4.35997 18.1249 4.82166 18.498 4.6355C19.2801 4.24828 20.012 3.77169 20.7439 3.28767C21.3466 2.893 22.2507 2.42386 22.5592 1.73878C22.7171 1.39624 22.5449 0.815404 22.0857 0.874977Z" fill="black"/>
<path d="M37.6758 4.57709C37.9485 4.70368 38.2211 4.83772 38.501 4.94942C38.7521 5.04623 39.0176 5.07601 39.2759 5.12814C39.5199 5.17282 39.771 5.09835 39.9001 4.86006C40.0221 4.64411 39.9934 4.3388 39.814 4.16009C39.606 3.95903 39.4051 3.74308 39.1683 3.57925C38.9458 3.42288 38.7091 3.29628 38.4723 3.16225C38.0992 2.9463 37.6112 3.06544 37.3888 3.46011C37.1951 3.8101 37.2884 4.39093 37.6758 4.57709Z" fill="black"/>
<path d="M35.7492 12.0529C35.4335 13.3858 35.2613 14.7187 35.2398 16.0889C35.2183 17.2431 35.2183 18.4941 35.6129 19.5888C35.9789 20.609 36.6246 21.4951 37.6363 21.8749C38.5691 22.2174 39.5162 22.0908 40.2338 21.3536C40.7002 20.8696 40.2338 19.9462 39.5736 20.1696C38.1386 20.6611 37.4282 18.9931 37.2632 17.824C37.0049 16.0144 37.1628 14.0932 37.3637 12.2837C37.457 11.3157 35.9645 11.1369 35.7492 12.0529Z" fill="black"/>
<path d="M53.1215 10.3483C50.9044 10.46 48.6585 10.4302 46.4629 10.0132C45.0996 9.7153 44.5112 11.845 45.8817 12.195C45.9606 12.2173 46.0396 12.2322 46.1185 12.2546C46.915 12.5078 47.3168 13.3492 47.5607 14.1609C47.9338 15.4268 48.0271 16.8044 47.8262 18.115C47.6684 19.1054 47.3742 20.5798 46.4629 21.1458C45.6593 21.6447 45.2933 20.3937 45.1427 19.798C43.7578 14.3769 44.4395 8.73235 45.4871 3.33359C45.5875 2.81233 44.8557 2.41021 44.6045 2.94637C42.2797 7.93557 42.0573 13.9077 43.0331 19.2916C43.2341 20.3937 43.4708 21.5553 44.2027 22.4192C44.9202 23.2681 46.0611 23.5659 47.0728 23.1415C49.3617 22.1734 50.0003 18.8969 50.0003 16.6257C50.0003 15.4194 49.8138 13.9673 49.3043 12.7237C50.6676 12.7907 52.0309 12.6716 53.3799 12.3365C54.4346 12.0759 54.2194 10.2961 53.1215 10.3483Z" fill="black"/>
</svg>
